<?xml version="1.0" standalone="no"?><!DOCTYPE svg PUBLIC "-//W3C//DTD SVG 1.1//EN" "http://www.w3.org/Graphics/SVG/1.1/DTD/svg11.dtd"><svg t="1545653826358" class="icon" style="" viewBox="0 0 1024 1024" version="1.1" xmlns="http://www.w3.org/2000/svg" p-id="4877" xmlns:xlink="http://www.w3.org/1999/xlink" width="200" height="200"><defs><style type="text/css"></style></defs><path d="M64 512a448 448 0 1 0 896 0A448 448 0 0 0 64 512z" fill="#FF9F00" p-id="4878"></path><path d="M760.384 360.832L524.864 723.2a14.016 14.016 0 0 1-10.368 5.568h-55.296a10.752 10.752 0 0 1-9.216-6.144L303.104 361.472c-1.408-3.392 0.512-6.272 4.096-6.272h168.384c3.712 0 5.312 2.688 3.52 5.888l-23.872 35.328a15.872 15.872 0 0 0-0.704 12.096l49.664 129.28c1.408 3.392 4.096 3.712 6.08 0.64L625.28 360.704a14.016 14.016 0 0 1 10.432-5.568h121.6c3.712 0 5.12 2.56 3.072 5.568z" fill="#FFFFFF" p-id="4879"></path></svg>