<?xml version="1.0" standalone="no"?><!DOCTYPE svg PUBLIC "-//W3C//DTD SVG 1.1//EN" "http://www.w3.org/Graphics/SVG/1.1/DTD/svg11.dtd"><svg t="1546483262927" class="icon" style="" viewBox="0 0 1026 1024" version="1.1" xmlns="http://www.w3.org/2000/svg" p-id="8129" xmlns:xlink="http://www.w3.org/1999/xlink" width="200.390625" height="200"><defs><style type="text/css"></style></defs><path d="M595.536842 301.810526h-43.115789v423.073685h43.115789c75.452632 0 132.042105-18.863158 172.463158-51.2 37.726316-35.031579 56.589474-88.926316 56.589474-158.989474 0-70.063158-18.863158-126.652632-56.589474-158.989474-40.421053-37.726316-97.010526-53.894737-172.463158-53.894737z" fill="#DD2727" p-id="8130"></path><path d="M897.347368 0H129.347368C56.589474 0 0 56.589474 0 129.347368v768C0 967.410526 56.589474 1024 129.347368 1024h768c70.063158 0 129.347368-56.589474 129.347369-129.347368V129.347368C1024 56.589474 967.410526 0 897.347368 0zM390.736842 598.231579c0 70.063158-21.557895 123.957895-61.978947 158.989474-40.421053 35.031579-105.094737 51.2-188.631579 51.2h-13.473684v-86.231579h10.778947c29.642105 0 53.894737-2.694737 72.757895-8.084211 18.863158-5.389474 37.726316-13.473684 51.2-24.252631 10.778947-8.084211 18.863158-21.557895 24.252631-35.031579 5.389474-16.168421 8.084211-43.115789 8.084211-83.536842V210.189474h97.010526v388.042105z m441.936842 137.431579c-56.589474 48.505263-140.126316 75.452632-247.915789 75.452631H458.105263V212.884211h126.652632c107.789474 0 191.326316 24.252632 247.915789 75.452631 56.589474 48.505263 86.231579 126.652632 86.231579 223.663158-2.694737 97.010526-32.336842 175.157895-86.231579 223.663158z" fill="#DD2727" p-id="8131"></path></svg>