<?xml version="1.0" standalone="no"?><!DOCTYPE svg PUBLIC "-//W3C//DTD SVG 1.1//EN" "http://www.w3.org/Graphics/SVG/1.1/DTD/svg11.dtd"><svg t="1547127861231" class="icon" style="" viewBox="0 0 1024 1024" version="1.1" xmlns="http://www.w3.org/2000/svg" p-id="2633" xmlns:xlink="http://www.w3.org/1999/xlink" width="200" height="200"><defs><style type="text/css"></style></defs><path d="M511.3 82.7c-236.7 0-428.5 191.8-428.5 428.5s191.8 428.5 428.5 428.5 428.5-191.8 428.5-428.5S748 82.7 511.3 82.7z" fill="#FFFFFF" p-id="2634"></path><path d="M511.3 957.6C265.2 957.6 65 757.3 65 511.2S265.2 64.9 511.3 64.9s446.4 200.2 446.4 446.4-200.2 446.3-446.4 446.3z m0-857c-226.4 0-410.6 184.2-410.6 410.6s184.2 410.6 410.6 410.6S922 737.6 922 511.2 737.8 100.6 511.3 100.6z" fill="#DDDDDD" p-id="2635"></path></svg>