<?xml version="1.0" standalone="no"?><!DOCTYPE svg PUBLIC "-//W3C//DTD SVG 1.1//EN" "http://www.w3.org/Graphics/SVG/1.1/DTD/svg11.dtd"><svg t="1544497215964" class="icon" style="" viewBox="0 0 1024 1024" version="1.1" xmlns="http://www.w3.org/2000/svg" p-id="4745" xmlns:xlink="http://www.w3.org/1999/xlink" width="200" height="200"><defs><style type="text/css"></style></defs><path d="M512.627 0.932c-19.421 0-38.561 1.105-57.432 3.327-46.334 5.272-90.446 16.646-132.068 33.575 0 0 343.49 339.881 352.648 352.371V27.847c-10.269-3.608-20.808-6.664-31.354-9.434C602.246 7.038 558.132 0.932 512.627 0.932z m0 0" fill="#EA5451" p-id="4746"></path><path d="M871.384 148.536c-13.877-13.867-28.302-26.348-43.014-38.285-36.345-28.854-76.021-52.161-117.085-69.647 0 0 2.498 483.053 0 498.317l256.372-256.366c-4.72-9.716-9.987-19.432-15.541-28.86-21.92-37.461-48.554-72.966-80.736-105.158h0.004z m0 0" fill="#5561AB" p-id="4747"></path><path d="M984.026 323.056s-339.887 343.49-352.372 352.652h362.358c3.609-10.269 6.66-20.803 9.435-31.358 11.374-42.17 17.481-86.008 17.481-131.505 0-19.421-1.116-38.566-3.333-57.435-5.266-46.612-16.922-90.727-33.569-132.354z m0 0" fill="#5279BC" p-id="4748"></path><path d="M479.886 713.722L736.26 970.077c9.706-4.709 19.421-9.972 28.851-15.53 37.731-21.644 73.252-48.559 105.435-80.736 13.601-13.605 26.357-28.297 38.289-43.009 28.855-36.345 52.167-75.75 69.644-117.08-0.001 0-483.052 2.487-498.593 0z m0 0" fill="#36A5DE" p-id="4749"></path><path d="M348.373 633.263V995.61c10.266 3.614 20.811 6.665 31.351 9.439 41.898 11.364 86.016 17.476 131.513 17.476 19.426 0 38.571-1.105 57.439-3.327 46.336-5.272 90.447-16.646 132.069-33.569 0 0-343.214-339.887-352.372-352.377v0.011z m0 0" fill="#6EBA36" p-id="4750"></path><path d="M312.305 482.039L55.937 738.415c4.715 9.706 9.99 19.422 15.536 28.851 21.643 37.736 48.555 73.252 80.741 105.439 13.599 13.872 28.303 26.353 43.004 38.29 36.352 28.85 75.748 52.161 117.093 69.638 0-0.276-2.498-483.329 0-498.594h-0.006z m0 0" fill="#95C632" p-id="4751"></path><path d="M20.425 379.66C9.045 421.554 2.943 465.679 2.943 511.171c0 19.426 1.108 38.571 3.33 57.429 5.27 46.347 16.649 90.462 33.572 132.079 0 0 339.605-343.49 352.371-352.366H29.858c-3.606 10.257-6.659 20.526-9.433 31.347z m0 0" fill="#F4C226" p-id="4752"></path><path d="M256.261 70.846c-37.734 21.644-73.249 48.559-105.437 80.746-13.87 13.872-26.357 28.298-38.287 43.004a505.706 505.706 0 0 0-69.64 117.367s483.042-2.498 498.583 0L285.114 55.592c-9.713 4.72-19.427 9.992-28.853 15.254z m0 0" fill="#EE7422" p-id="4753"></path></svg>